<?xml version="1.0" encoding="utf-8"?>
<!-- Generator: Adobe Illustrator 16.0.0, SVG Export Plug-In . SVG Version: 6.00 Build 0)  -->
<!DOCTYPE svg PUBLIC "-//W3C//DTD SVG 1.1//EN" "http://www.w3.org/Graphics/SVG/1.1/DTD/svg11.dtd">
<svg version="1.1" id="Layer_1" xmlns="http://www.w3.org/2000/svg" xmlns:xlink="http://www.w3.org/1999/xlink" x="0px" y="0px"
	 width="512px" height="512px" viewBox="0 0 512 512" enable-background="new 0 0 512 512" xml:space="preserve">
<g id="_x32_0._cosmonaut_x2C__suit_x2C__space_x2C__star_x2C__astronomy_x2C__discovery">
	<g>
		<g>
			<path d="M507.879,511.877H4.121c-2.21,0-3.998-1.788-3.998-3.998V443.91c0-34.312,17.773-47.462,50.577-59.722l8.621-3.194
				c8.793-3.24,19.787-7.301,31.306-11.791c2.062-0.796,4.38,0.219,5.177,2.272c0.805,2.054-0.211,4.373-2.272,5.178
				c-11.564,4.513-22.614,8.589-31.445,11.846l-8.59,3.186C22.753,403.172,8.119,413.924,8.119,443.91v59.971h495.762V443.91
				c0-29.986-14.633-40.738-45.377-52.226l-8.503-3.154c-8.848-3.265-19.929-7.356-31.524-11.877
				c-2.054-0.805-3.076-3.124-2.271-5.178c0.804-2.054,3.115-3.076,5.177-2.272c11.549,4.498,22.583,8.574,31.384,11.822
				l8.534,3.163c32.805,12.26,50.577,25.409,50.577,59.722v63.969C511.877,510.089,510.089,511.877,507.879,511.877z"/>
		</g>
	</g>
	<g>
		<path d="M20.355,24.111c-2.21,0-4.037-1.788-4.037-3.998s1.75-3.998,3.951-3.998h0.086c2.202,0,3.998,1.788,3.998,3.998
			S22.558,24.111,20.355,24.111z"/>
	</g>
	<g>
		<path d="M60.336,88.081c-2.209,0-4.037-1.789-4.037-3.998c0-2.21,1.75-3.999,3.952-3.999h0.085c2.202,0,3.998,1.789,3.998,3.999
			C64.334,86.292,62.539,88.081,60.336,88.081z"/>
	</g>
	<g>
		<path d="M492.48,263.996c-2.21,0-4.037-1.788-4.037-3.998s1.749-3.998,3.951-3.998h0.086c2.202,0,3.998,1.788,3.998,3.998
			S494.683,263.996,492.48,263.996z"/>
	</g>
	<g>
		<path d="M468.141,144.054c-2.21,0-4.037-1.788-4.037-3.998s1.749-3.998,3.951-3.998h0.086c2.202,0,3.998,1.788,3.998,3.998
			S470.343,144.054,468.141,144.054z"/>
	</g>
	<g>
		<path d="M380.183,9.493c-2.21,0-4.037-1.788-4.037-3.998c0-2.209,1.749-3.998,3.951-3.998h0.086c2.202,0,3.998,1.789,3.998,3.998
			C384.181,7.705,382.385,9.493,380.183,9.493z"/>
	</g>
	<g>
		<path d="M4.363,168.042c-2.21,0-4.037-1.788-4.037-3.998c0-2.209,1.749-3.998,3.951-3.998h0.086c2.202,0,3.998,1.789,3.998,3.998
			C8.361,166.254,6.565,168.042,4.363,168.042z"/>
	</g>
	<g>
		<g>
			<path d="M36.106,271.992c-2.21,0-3.998-1.788-3.998-3.998V236.01c0-2.21,1.788-3.998,3.998-3.998s3.998,1.788,3.998,3.998v31.984
				C40.104,270.204,38.316,271.992,36.106,271.992z"/>
		</g>
		<g>
			<path d="M44.102,256H28.11c-2.21,0-3.998-1.788-3.998-3.998s1.788-3.998,3.998-3.998h15.992c2.21,0,3.998,1.788,3.998,3.998
				S46.312,256,44.102,256z"/>
		</g>
	</g>
	<g>
		<g>
			<path d="M483.891,56.096c-7.473,0-14.501-2.913-19.787-8.199c-5.287-5.287-8.199-12.314-8.199-19.788
				c0-7.473,2.912-14.501,8.199-19.787c10.573-10.573,29.002-10.573,39.574,0c5.287,5.286,8.199,12.314,8.199,19.787
				c0,7.473-2.912,14.501-8.199,19.788C498.392,53.184,491.363,56.096,483.891,56.096z M483.891,8.119
				c-5.333,0-10.354,2.077-14.134,5.856s-5.856,8.801-5.856,14.134c0,5.333,2.077,10.354,5.856,14.134
				c7.559,7.559,20.709,7.559,28.268,0c3.779-3.779,5.856-8.8,5.856-14.134c0-5.333-2.077-10.354-5.856-14.134
				S489.225,8.119,483.891,8.119z"/>
		</g>
		<g>
			<path d="M463.236,55.394c-1.858,0-3.498-0.555-4.786-1.843c-1.562-1.562-1.562-4.092,0-5.654c1.39-1.382,3.537-1.539,5.091-0.468
				c2.569-0.148,11.658-4.975,23.177-16.492c11.518-11.518,16.344-20.607,16.491-23.177c-1.069-1.554-0.921-3.709,0.469-5.091
				c1.562-1.562,4.092-1.562,5.654,0c8.074,8.074-12.713,29.673-16.961,33.921C488.803,40.158,472.99,55.394,463.236,55.394z"/>
		</g>
	</g>
	<g>
		<path d="M411.926,164.044c-2.21,0-3.998-1.788-3.998-3.998C407.928,76.274,339.772,8.119,256,8.119
			c-83.772,0-151.927,68.155-151.927,151.927c0,2.21-1.788,3.998-3.998,3.998s-3.998-1.788-3.998-3.998
			C96.077,71.862,167.816,0.123,256,0.123c88.185,0,159.924,71.739,159.924,159.923
			C415.924,162.256,414.135,164.044,411.926,164.044z"/>
	</g>
	<g>
		<path d="M138.463,88.081c-0.75,0-1.499-0.211-2.171-0.641c-1.858-1.203-2.382-3.678-1.187-5.528
			C161.796,40.713,206.993,16.115,256,16.115c49,0,94.189,24.59,120.888,65.781c1.194,1.851,0.671,4.326-1.188,5.528
			c-1.843,1.179-4.317,0.68-5.528-1.187C344.957,47.335,302.275,24.111,256,24.111c-46.282,0-88.973,23.231-114.179,62.142
			C141.056,87.44,139.767,88.081,138.463,88.081z"/>
	</g>
	<g>
		<path d="M411.926,351.954c-2.21,0-3.998-1.788-3.998-3.998V160.171c0-2.21,1.788-3.998,3.998-3.998
			c2.209,0,3.998,1.788,3.998,3.998v187.785C415.924,350.166,414.135,351.954,411.926,351.954z"/>
	</g>
	<g>
		<path d="M100.075,351.954c-2.21,0-3.998-1.788-3.998-3.998V160.171c0-2.21,1.788-3.998,3.998-3.998s3.998,1.788,3.998,3.998
			v187.785C104.073,350.166,102.285,351.954,100.075,351.954z"/>
	</g>
	<g>
		<path d="M347.956,303.977H164.044c-2.209,0-3.998-1.788-3.998-3.998c0-2.209,1.789-3.998,3.998-3.998h183.912
			c2.21,0,3.998,1.789,3.998,3.998C351.954,302.188,350.166,303.977,347.956,303.977z"/>
	</g>
	<g>
		<g>
			<path d="M124.063,152.05c-2.21,0-3.998-1.788-3.998-3.998c0-24.246,19.733-43.979,43.979-43.979c2.21,0,3.998,1.788,3.998,3.998
				s-1.788,3.998-3.998,3.998c-19.842,0-35.983,16.141-35.983,35.982C128.062,150.262,126.273,152.05,124.063,152.05z"/>
		</g>
		<g>
			<path d="M387.937,152.05c-2.21,0-3.998-1.788-3.998-3.998c0-19.842-16.141-35.982-35.982-35.982c-2.21,0-3.998-1.788-3.998-3.998
				s1.788-3.998,3.998-3.998c24.246,0,43.979,19.732,43.979,43.979C391.936,150.262,390.146,152.05,387.937,152.05z"/>
		</g>
		<g>
			<path d="M347.956,112.069H164.044c-2.209,0-3.998-1.788-3.998-3.998s1.789-3.998,3.998-3.998h183.912
				c2.21,0,3.998,1.788,3.998,3.998S350.166,112.069,347.956,112.069z"/>
		</g>
		<g>
			<path d="M347.956,303.977c-2.21,0-3.998-1.788-3.998-3.998c0-2.209,1.788-3.998,3.998-3.998
				c19.842,0,35.982-16.141,35.982-35.982c0-2.21,1.788-3.998,3.998-3.998s3.999,1.788,3.999,3.998
				C391.936,284.244,372.202,303.977,347.956,303.977z"/>
		</g>
		<g>
			<path d="M164.044,303.977c-24.246,0-43.979-19.732-43.979-43.979c0-2.21,1.788-3.998,3.998-3.998s3.998,1.788,3.998,3.998
				c0,19.842,16.141,35.982,35.983,35.982c2.21,0,3.998,1.789,3.998,3.998C168.042,302.188,166.254,303.977,164.044,303.977z"/>
		</g>
		<g>
			<path d="M124.063,263.996c-2.21,0-3.998-1.788-3.998-3.998V148.052c0-2.21,1.788-3.998,3.998-3.998s3.998,1.788,3.998,3.998
				v111.946C128.062,262.208,126.273,263.996,124.063,263.996z"/>
		</g>
		<g>
			<path d="M387.937,263.996c-2.21,0-3.998-1.788-3.998-3.998V148.052c0-2.21,1.788-3.998,3.998-3.998s3.999,1.788,3.999,3.998
				v111.946C391.936,262.208,390.146,263.996,387.937,263.996z"/>
		</g>
	</g>
	<g>
		<path d="M256,383.938c-132.077,0-157.721-24.129-158.751-25.159c-1.562-1.562-1.562-4.092,0-5.654
			c1.554-1.538,4.053-1.554,5.607-0.047c0.492,0.438,26.627,22.864,153.145,22.864c127.119,0,152.903-22.638,153.153-22.864
			c1.585-1.491,4.115-1.46,5.622,0.125c1.516,1.562,1.516,4.037-0.023,5.576C413.722,359.81,388.077,383.938,256,383.938z"/>
	</g>
	<g>
		<path d="M256,399.931c-132.077,0-157.721-24.129-158.751-25.159c-1.562-1.562-1.562-4.092,0-5.654
			c1.554-1.538,4.053-1.562,5.607-0.047c0.492,0.438,26.627,22.864,153.145,22.864c127.119,0,152.903-22.638,153.153-22.864
			c1.585-1.491,4.115-1.46,5.622,0.125c1.516,1.562,1.516,4.037-0.023,5.576C413.722,375.802,388.077,399.931,256,399.931z"/>
	</g>
	<g>
		<path d="M427.918,168.042h-7.333c-2.21,0-3.998-1.788-3.998-3.998c0-2.209,1.788-3.998,3.998-3.998h7.333
			c2.209,0,3.998,1.789,3.998,3.998C431.916,166.254,430.127,168.042,427.918,168.042z"/>
	</g>
	<g>
		<path d="M427.918,200.027c-2.21,0-3.998-1.788-3.998-3.998v-31.985c0-2.209,1.788-3.998,3.998-3.998
			c2.209,0,3.998,1.789,3.998,3.998v31.985C431.916,198.239,430.127,200.027,427.918,200.027z"/>
	</g>
	<g>
		<path d="M427.918,200.027h-7.996c-2.21,0-3.998-1.788-3.998-3.998c0-2.209,1.788-3.998,3.998-3.998h7.996
			c2.209,0,3.998,1.789,3.998,3.998C431.916,198.239,430.127,200.027,427.918,200.027z"/>
	</g>
	<g>
		<path d="M91.415,200.027h-7.332c-2.21,0-3.998-1.788-3.998-3.998c0-2.209,1.788-3.998,3.998-3.998h7.332
			c2.21,0,3.998,1.789,3.998,3.998C95.413,198.239,93.625,200.027,91.415,200.027z"/>
	</g>
	<g>
		<path d="M84.083,200.027c-2.21,0-3.998-1.788-3.998-3.998v-31.985c0-2.209,1.788-3.998,3.998-3.998s3.998,1.789,3.998,3.998
			v31.985C88.081,198.239,86.293,200.027,84.083,200.027z"/>
	</g>
	<g>
		<path d="M92.079,168.042h-7.996c-2.21,0-3.998-1.788-3.998-3.998c0-2.209,1.788-3.998,3.998-3.998h7.996
			c2.21,0,3.998,1.789,3.998,3.998C96.077,166.254,94.289,168.042,92.079,168.042z"/>
	</g>
	<g>
		<path d="M204.025,287.984c-0.383,0-0.766-0.055-1.148-0.172c-2.116-0.632-3.319-2.857-2.678-4.974l47.977-159.923
			c0.633-2.116,2.874-3.319,4.975-2.678c2.116,0.632,3.318,2.858,2.678,4.974l-47.977,159.923
			C207.336,286.868,205.743,287.984,204.025,287.984z"/>
	</g>
	<g>
		<path d="M236.01,287.984c-0.383,0-0.765-0.055-1.147-0.172c-2.116-0.632-3.319-2.857-2.679-4.974l47.977-159.923
			c0.633-2.116,2.866-3.319,4.975-2.678c2.116,0.632,3.318,2.858,2.678,4.974l-47.977,159.923
			C239.321,286.868,237.728,287.984,236.01,287.984z"/>
	</g>
	<g>
		<path d="M100.075,375.942c-2.21,0-3.998-1.788-3.998-3.998v-15.992c0-2.21,1.788-3.998,3.998-3.998s3.998,1.788,3.998,3.998
			v15.992C104.073,374.154,102.285,375.942,100.075,375.942z"/>
	</g>
	<g>
		<path d="M411.926,375.942c-2.21,0-3.998-1.788-3.998-3.998v-15.992c0-2.21,1.788-3.998,3.998-3.998
			c2.209,0,3.998,1.788,3.998,3.998v15.992C415.924,374.154,414.135,375.942,411.926,375.942z"/>
	</g>
	<g>
		<path d="M136.058,389.787c-2.209,0-3.998-1.788-3.998-3.998v-15.992c0-2.21,1.789-3.998,3.998-3.998
			c2.21,0,3.998,1.788,3.998,3.998v15.992C140.056,387.999,138.268,389.787,136.058,389.787z"/>
	</g>
	<g>
		<path d="M184.035,396.909c-2.21,0-3.998-1.788-3.998-3.998v-15.915c0-2.209,1.788-3.998,3.998-3.998
			c2.209,0,3.998,1.789,3.998,3.998v15.915C188.033,395.121,186.245,396.909,184.035,396.909z"/>
	</g>
	<g>
		<path d="M232.012,399.649c-2.21,0-3.998-1.788-3.998-3.998V379.94c0-2.21,1.788-3.998,3.998-3.998s3.998,1.788,3.998,3.998v15.711
			C236.01,397.861,234.222,399.649,232.012,399.649z"/>
	</g>
	<g>
		<path d="M279.988,399.649c-2.209,0-3.998-1.788-3.998-3.998v-15.992c0-2.21,1.789-3.998,3.998-3.998
			c2.211,0,3.998,1.788,3.998,3.998v15.992C283.986,397.861,282.199,399.649,279.988,399.649z"/>
	</g>
	<g>
		<path d="M327.966,396.909c-2.21,0-3.998-1.788-3.998-3.998v-15.915c0-2.209,1.788-3.998,3.998-3.998s3.998,1.789,3.998,3.998
			v15.915C331.964,395.121,330.176,396.909,327.966,396.909z"/>
	</g>
	<g>
		<path d="M375.942,389.779c-2.21,0-3.998-1.788-3.998-3.998v-15.984c0-2.21,1.788-3.998,3.998-3.998s3.998,1.788,3.998,3.998
			v15.984C379.94,387.991,378.152,389.779,375.942,389.779z"/>
	</g>
	<g>
		<path d="M331.964,279.988c-2.21,0-3.998-1.788-3.998-3.998s1.788-3.998,3.998-3.998c19.842,0,35.982-16.141,35.982-35.982
			c0-2.21,1.788-3.998,3.998-3.998s3.998,1.788,3.998,3.998C375.942,260.256,356.21,279.988,331.964,279.988z"/>
	</g>
	<g>
		<path d="M319.97,287.984c-8.965,0-15.992-5.271-15.992-11.994c0-6.723,7.027-11.994,15.992-11.994
			c8.964,0,15.992,5.271,15.992,11.994C335.962,282.714,328.934,287.984,319.97,287.984z M319.97,271.992
			c-4.881,0-7.996,2.366-7.996,3.998c0,1.633,3.115,3.998,7.996,3.998c4.88,0,7.996-2.365,7.996-3.998
			C327.966,274.358,324.85,271.992,319.97,271.992z"/>
	</g>
	<g>
		<path d="M236.01,351.954c-2.21,0-3.998-1.788-3.998-3.998v-15.992c0-2.21,1.788-3.999,3.998-3.999s3.998,1.789,3.998,3.999v15.992
			C240.008,350.166,238.22,351.954,236.01,351.954z"/>
	</g>
	<g>
		<path d="M256,359.95c-2.21,0-3.998-1.788-3.998-3.998v-31.985c0-2.209,1.788-3.998,3.998-3.998s3.998,1.789,3.998,3.998v31.985
			C259.998,358.162,258.21,359.95,256,359.95z"/>
	</g>
	<g>
		<path d="M275.99,351.954c-2.209,0-3.998-1.788-3.998-3.998v-15.992c0-2.21,1.789-3.999,3.998-3.999
			c2.21,0,3.998,1.789,3.998,3.999v15.992C279.988,350.166,278.2,351.954,275.99,351.954z"/>
	</g>
	<g>
		<path d="M343.958,351.954c-8.816,0-15.992-7.177-15.992-15.992c0-8.816,7.176-15.993,15.992-15.993s15.992,7.177,15.992,15.993
			C359.95,344.777,352.774,351.954,343.958,351.954z M343.958,327.965c-4.412,0-7.996,3.585-7.996,7.997
			c0,4.411,3.584,7.996,7.996,7.996s7.996-3.585,7.996-7.996C351.954,331.55,348.37,327.965,343.958,327.965z"/>
	</g>
	<g>
		<path d="M168.042,351.954c-8.816,0-15.992-7.177-15.992-15.992c0-8.816,7.176-15.993,15.992-15.993s15.993,7.177,15.993,15.993
			C184.035,344.777,176.858,351.954,168.042,351.954z M168.042,327.965c-4.412,0-7.996,3.585-7.996,7.997
			c0,4.411,3.584,7.996,7.996,7.996c4.412,0,7.997-3.585,7.997-7.996C176.039,331.55,172.455,327.965,168.042,327.965z"/>
	</g>
	<g>
		<g>
			<path d="M108.353,479.611c-15.43,0-27.986-12.557-27.986-27.986c0-15.431,12.556-27.986,27.986-27.986
				c15.43,0,27.986,12.556,27.986,27.986C136.339,467.055,123.782,479.611,108.353,479.611z M108.353,431.635
				c-11.026,0-19.99,8.964-19.99,19.99c0,11.025,8.964,19.99,19.99,19.99s19.99-8.965,19.99-19.99
				C128.343,440.599,119.378,431.635,108.353,431.635z"/>
		</g>
		<g>
			<path d="M98.076,452.195c-1.288,0-2.554-0.625-3.326-1.781c-1.227-1.835-0.727-4.318,1.108-5.544l20.553-13.704
				c1.819-1.227,4.311-0.742,5.544,1.108c1.227,1.835,0.727,4.318-1.108,5.544l-20.553,13.705
				C99.614,451.977,98.842,452.195,98.076,452.195z"/>
		</g>
		<g>
			<path d="M118.629,459.051c-0.422,0-0.844-0.062-1.265-0.203l-20.552-6.855c-2.093-0.703-3.226-2.968-2.53-5.061
				c0.71-2.093,2.983-3.225,5.06-2.53l20.552,6.856c2.093,0.703,3.226,2.967,2.53,5.061
				C121.861,457.988,120.3,459.051,118.629,459.051z"/>
		</g>
		<g>
			<path d="M98.076,472.755c-1.288,0-2.554-0.624-3.326-1.78c-1.227-1.835-0.727-4.318,1.108-5.544l20.553-13.704
				c1.819-1.219,4.311-0.734,5.544,1.108c1.227,1.835,0.727,4.318-1.108,5.544l-20.553,13.705
				C99.614,472.537,98.842,472.755,98.076,472.755z"/>
		</g>
	</g>
	<g>
		<path d="M399.932,455.904c-8.816,0-15.993-7.177-15.993-15.992c0-8.816,7.177-15.992,15.993-15.992
			c8.815,0,15.992,7.176,15.992,15.992C415.924,448.728,408.747,455.904,399.932,455.904z M399.932,431.916
			c-4.412,0-7.996,3.584-7.996,7.996c0,4.411,3.584,7.996,7.996,7.996c4.411,0,7.996-3.585,7.996-7.996
			C407.928,435.5,404.343,431.916,399.932,431.916z"/>
	</g>
	<g>
		<path d="M399.932,495.885c-8.816,0-15.993-7.176-15.993-15.992s7.177-15.992,15.993-15.992c8.815,0,15.992,7.176,15.992,15.992
			S408.747,495.885,399.932,495.885z M399.932,471.896c-4.412,0-7.996,3.584-7.996,7.996s3.584,7.996,7.996,7.996
			c4.411,0,7.996-3.584,7.996-7.996S404.343,471.896,399.932,471.896z"/>
	</g>
	<g>
		<path d="M188.033,471.896c-2.21,0-3.998-1.788-3.998-3.998c0-11.026,8.964-19.99,19.99-19.99c2.21,0,3.998,1.788,3.998,3.998
			c0,2.209-1.788,3.998-3.998,3.998c-6.614,0-11.994,5.38-11.994,11.994C192.031,470.108,190.243,471.896,188.033,471.896z"/>
	</g>
	<g>
		<path d="M323.968,471.896c-2.21,0-3.998-1.788-3.998-3.998c0-6.614-5.38-11.994-11.994-11.994c-2.21,0-3.998-1.789-3.998-3.998
			c0-2.21,1.788-3.998,3.998-3.998c11.025,0,19.99,8.964,19.99,19.99C327.966,470.108,326.178,471.896,323.968,471.896z"/>
	</g>
	<g>
		<path d="M188.033,511.877c-2.21,0-3.998-1.788-3.998-3.998v-39.98c0-2.21,1.788-3.998,3.998-3.998s3.998,1.788,3.998,3.998v39.98
			C192.031,510.089,190.243,511.877,188.033,511.877z"/>
	</g>
	<g>
		<path d="M323.968,511.877c-2.21,0-3.998-1.788-3.998-3.998v-39.98c0-2.21,1.788-3.998,3.998-3.998s3.998,1.788,3.998,3.998v39.98
			C327.966,510.089,326.178,511.877,323.968,511.877z"/>
	</g>
	<g>
		<path d="M307.976,455.904h-103.95c-2.21,0-3.998-1.789-3.998-3.998c0-2.21,1.788-3.998,3.998-3.998h103.95
			c2.21,0,3.998,1.788,3.998,3.998C311.974,454.115,310.186,455.904,307.976,455.904z"/>
	</g>
	<g>
		<path d="M188.033,455.904c-2.21,0-3.998-1.789-3.998-3.998c0-11.026,8.964-19.99,19.99-19.99c2.21,0,3.998,1.787,3.998,3.998
			c0,2.209-1.788,3.998-3.998,3.998c-6.614,0-11.994,5.38-11.994,11.994C192.031,454.115,190.243,455.904,188.033,455.904z"/>
	</g>
	<g>
		<path d="M323.968,455.904c-2.21,0-3.998-1.789-3.998-3.998c0-6.614-5.38-11.994-11.994-11.994c-2.21,0-3.998-1.789-3.998-3.998
			c0-2.211,1.788-3.998,3.998-3.998c11.025,0,19.99,8.964,19.99,19.99C327.966,454.115,326.178,455.904,323.968,455.904z"/>
	</g>
	<g>
		<path d="M307.976,439.912h-103.95c-2.21,0-3.998-1.789-3.998-3.998c0-2.211,1.788-3.998,3.998-3.998h103.95
			c2.21,0,3.998,1.787,3.998,3.998C311.974,438.123,310.186,439.912,307.976,439.912z"/>
	</g>
	<g>
		<path d="M299.979,479.893h-87.958c-2.21,0-3.998-1.788-3.998-3.998s1.788-3.998,3.998-3.998h87.958
			c2.21,0,3.998,1.788,3.998,3.998S302.189,479.893,299.979,479.893z"/>
	</g>
	<g>
		<path d="M299.979,495.885h-87.958c-2.21,0-3.998-1.788-3.998-3.998s1.788-3.998,3.998-3.998h87.958
			c2.21,0,3.998,1.788,3.998,3.998S302.189,495.885,299.979,495.885z"/>
	</g>
	<g>
		<path d="M4.121,367.946c-2.21,0-3.998-1.788-3.998-3.998c0-28.658,23.317-51.976,51.976-51.976c2.209,0,3.998,1.789,3.998,3.998
			c0,2.211-1.789,3.998-3.998,3.998c-24.247,0-43.979,19.733-43.979,43.979C8.119,366.158,6.331,367.946,4.121,367.946z"/>
	</g>
	<g>
		<path d="M84.083,319.969H52.099c-2.21,0-3.999-1.787-3.999-3.998c0-2.209,1.789-3.998,3.999-3.998h31.984
			c2.21,0,3.998,1.789,3.998,3.998C88.081,318.182,86.293,319.969,84.083,319.969z"/>
	</g>
	<g>
		<path d="M4.121,407.927c-2.21,0-3.998-1.788-3.998-3.998v-39.98c0-2.21,1.788-3.998,3.998-3.998s3.998,1.788,3.998,3.998v39.98
			C8.119,406.139,6.331,407.927,4.121,407.927z"/>
	</g>
	<g>
		<path d="M507.879,367.946c-2.209,0-3.998-1.788-3.998-3.998c0-24.246-19.732-43.979-43.979-43.979
			c-2.21,0-3.998-1.787-3.998-3.998c0-2.209,1.788-3.998,3.998-3.998c28.658,0,51.975,23.317,51.975,51.976
			C511.877,366.158,510.089,367.946,507.879,367.946z"/>
	</g>
	<g>
		<path d="M459.902,319.969h-31.984c-2.21,0-3.998-1.787-3.998-3.998c0-2.209,1.788-3.998,3.998-3.998h31.984
			c2.21,0,3.998,1.789,3.998,3.998C463.9,318.182,462.112,319.969,459.902,319.969z"/>
	</g>
	<g>
		<path d="M507.879,407.927c-2.209,0-3.998-1.788-3.998-3.998v-39.98c0-2.21,1.789-3.998,3.998-3.998
			c2.21,0,3.998,1.788,3.998,3.998v39.98C511.877,406.139,510.089,407.927,507.879,407.927z"/>
	</g>
</g>
</svg>
