<?xml version="1.0" encoding="utf-8"?>
<!-- Generator: Adobe Illustrator 16.0.0, SVG Export Plug-In . SVG Version: 6.00 Build 0)  -->
<!DOCTYPE svg PUBLIC "-//W3C//DTD SVG 1.1//EN" "http://www.w3.org/Graphics/SVG/1.1/DTD/svg11.dtd">
<svg version="1.1" id="Layer_1" xmlns="http://www.w3.org/2000/svg" xmlns:xlink="http://www.w3.org/1999/xlink" x="0px" y="0px"
	 width="512px" height="512px" viewBox="0 0 512 512" enable-background="new 0 0 512 512" xml:space="preserve">
<g id="_x31_8._satellite_x2C__earth_x2C__orbit_x2C__space_x2C__star_x2C__astronomy_x2C__discovery">
	<g>
		<path d="M24.133,241.96c-2.206,0-4.037-1.788-4.037-3.998s1.749-3.998,3.959-3.998h0.078c2.21,0,3.998,1.788,3.998,3.998
			S26.343,241.96,24.133,241.96z"/>
	</g>
	<g>
		<path d="M311.991,40.104c-2.202,0-4.029-1.788-4.029-3.998s1.749-3.998,3.951-3.998h0.078c2.202,0,3.998,1.788,3.998,3.998
			S314.193,40.104,311.991,40.104z"/>
	</g>
	<g>
		<path d="M487.906,144.054c-2.202,0-4.029-1.788-4.029-3.998s1.749-3.998,3.951-3.998h0.078c2.202,0,3.998,1.788,3.998,3.998
			S490.108,144.054,487.906,144.054z"/>
	</g>
	<g>
		<path d="M463.918,351.954c-2.202,0-4.029-1.788-4.029-3.998s1.749-3.998,3.951-3.998h0.078c2.202,0,3.998,1.788,3.998,3.998
			S466.12,351.954,463.918,351.954z"/>
	</g>
	<g>
		<path d="M351.972,471.896c-2.202,0-4.029-1.788-4.029-3.998s1.749-3.998,3.951-3.998h0.078c2.202,0,3.998,1.788,3.998,3.998
			S354.174,471.896,351.972,471.896z"/>
	</g>
	<g>
		<path d="M208.041,463.9c-2.206,0-4.037-1.789-4.037-3.998c0-2.21,1.749-3.998,3.959-3.998h0.078c2.21,0,3.998,1.788,3.998,3.998
			C212.039,462.111,210.251,463.9,208.041,463.9z"/>
	</g>
	<g>
		<path d="M56.118,511.877c-2.206,0-4.037-1.788-4.037-3.998s1.749-3.998,3.959-3.998h0.078c2.209,0,3.998,1.788,3.998,3.998
			S58.327,511.877,56.118,511.877z"/>
	</g>
	<g>
		<path d="M160.067,64.092c-2.206,0-4.037-1.789-4.037-3.998c0-2.21,1.749-3.998,3.959-3.998h0.078c2.21,0,3.998,1.788,3.998,3.998
			C164.065,62.304,162.277,64.092,160.067,64.092z"/>
	</g>
	<g>
		<g>
			<path d="M479.676,495.885c-2.218,0-3.998-1.788-3.998-3.998v-31.984c0-2.21,1.78-3.998,3.998-3.998
				c2.202,0,3.998,1.788,3.998,3.998v31.984C483.674,494.097,481.878,495.885,479.676,495.885z"/>
		</g>
		<g>
			<path d="M487.672,479.893H471.68c-2.218,0-3.998-1.788-3.998-3.998s1.78-3.998,3.998-3.998h15.992
				c2.202,0,3.998,1.788,3.998,3.998S489.874,479.893,487.672,479.893z"/>
		</g>
	</g>
	<g>
		<g>
			<path d="M39.888,40.104c-2.21,0-3.999-1.788-3.999-3.998V4.121c0-2.21,1.789-3.998,3.999-3.998c2.209,0,3.998,1.788,3.998,3.998
				v31.984C43.886,38.315,42.097,40.104,39.888,40.104z"/>
		</g>
		<g>
			<path d="M47.884,24.111H31.891c-2.209,0-3.998-1.788-3.998-3.998s1.789-3.998,3.998-3.998h15.993c2.21,0,3.998,1.788,3.998,3.998
				S50.094,24.111,47.884,24.111z"/>
		</g>
	</g>
	<g>
		<g>
			<g>
				<path d="M146.391,395.831c-0.854,0-1.722-0.273-2.448-0.843C100.683,361.371,75.87,310.716,75.87,256
					c0.004-97,78.919-175.916,175.911-175.916c54.744,0,105.422,24.832,139.047,68.124c1.358,1.741,1.031,4.256-0.703,5.606
					c-1.733,1.352-4.264,1.047-5.606-0.702c-32.109-41.332-80.492-65.031-132.737-65.031C159.197,88.081,83.87,163.412,83.866,256
					c0,52.225,23.684,100.584,64.98,132.679c1.745,1.351,2.062,3.865,0.707,5.606C148.765,395.301,147.586,395.831,146.391,395.831z
					"/>
			</g>
			<g>
				<path d="M251.781,431.916c-27.006,0-52.916-5.959-77.006-17.711c-1.983-0.968-2.807-3.357-1.839-5.341
					c0.973-1.983,3.35-2.796,5.345-1.843c22.989,11.213,47.716,16.898,73.5,16.898c92.585,0,167.924-75.332,167.924-167.92
					c0-25.753-5.67-50.437-16.836-73.371c-0.969-1.983-0.141-4.373,1.843-5.341c1.968-0.945,4.373-0.148,5.341,1.843
					c11.714,24.027,17.648,49.89,17.648,76.869C427.701,353,348.785,431.916,251.781,431.916z"/>
			</g>
			<g>
				<g>
					<path d="M380.364,219.268c-2.015,0-3.764-1.538-3.967-3.6c-0.219-2.194,1.39-4.154,3.576-4.373
						c2.593-0.266,3.515-1.148,3.842-3.662c0.797-6.317,19.694-17.406,27.534-18.429c2.155-0.32,4.186,1.265,4.482,3.451
						c0.281,2.187-1.266,4.193-3.452,4.482c-6.185,0.804-19.365,9.573-20.817,12.174c-0.609,5.544-4.498,9.308-10.792,9.933
						C380.646,219.26,380.505,219.268,380.364,219.268z"/>
				</g>
				<g>
					<path d="M298.092,376.528c-0.891,0-1.781-0.039-2.687-0.117c-9.012-0.812-15.243-8.043-18.601-21.498
						c-1.062-4.364-1.874-9.034-2.53-14.72c-0.249-2.193,1.328-4.169,3.53-4.427c1.998-0.258,4.17,1.327,4.42,3.521
						c0.608,5.333,1.358,9.683,2.342,13.704c2.437,9.777,6.31,14.985,11.525,15.454c12.213,0.937,20.568-7.349,28.674-16.758
						c2.265-2.632,4.717-5.153,7.169-7.676c4.935-5.053,9.589-9.823,12.713-15.532c3.623-6.598,4.997-13.907,6.45-21.638
						c1.577-8.379,3.217-17.046,7.887-25.098l1.968-3.381c12.119-20.873,18.507-33.937,19.037-38.911
						c-5.919,0.336-11.479,0.047-16.507-0.875c-2.172-0.406-3.608-2.483-3.202-4.662c0.406-2.171,2.437-3.576,4.654-3.209
						c4.778,0.882,10.12,1.125,15.914,0.671c2.608-0.227,4.778,0.836,6.028,2.827c3.482,5.544-1.312,17.694-19.022,48.172
						l-1.937,3.366c-3.998,6.879-5.435,14.508-6.965,22.582c-1.5,8.004-3.062,16.281-7.294,23.996
						c-3.654,6.669-8.901,12.057-13.993,17.273c-2.343,2.397-4.686,4.795-6.84,7.309
						C322.58,366.463,312.631,376.528,298.092,376.528z"/>
				</g>
				<g>
					<path d="M255.814,284.252c-0.352,0-0.706-0.047-1.058-0.141c-5.669-1.554-12.428-1.554-19.581-1.554l-5.024-0.023
						c-24.09-0.289-39.618-15.641-40.523-40.066c-0.809-21.592,5.454-38.318,18.608-49.734
						c13.114-11.385,29.931-13.892,34.698-13.041l1.397,0.25c15.18,2.702,29.927,5.591,35.034,8.41
						c10.214,5.646,20.521,2.733,26.237-1.46c3.701-2.717,4.576-5.208,4.467-5.763c-3.374-4.842-43.089-15.165-61.201-16.469
						c-1.461-0.18-4.068,0.352-6.567,0.812c-6.349,1.148-14.255,2.577-18.776-2.413c-4.166-4.607-3.389-11.674,2.077-18.913
						c14.028-18.468,34.683-26.651,54.669-34.569c7.138-2.834,14.54-5.763,21.396-9.097c2.124-1.039,5.95-3.592,6.793-6.528
						c0.594-2.124,2.812-3.397,4.936-2.749c2.124,0.602,3.357,2.819,2.749,4.936c-1.89,6.637-8.871,10.495-10.979,11.525
						c-7.137,3.467-14.665,6.458-21.958,9.347c-19.83,7.855-38.56,15.282-51.233,31.969c-1.897,2.514-4.146,6.918-2.522,8.707
						c1.534,1.702,7.489,0.617,11.433-0.086c3.115-0.57,6.052-1.101,8.55-0.921c7.841,0.57,66.008,10.276,68.476,22.888
						c0.905,4.451-1.921,9.612-7.574,13.767c-7.622,5.606-21.334,9.479-34.827,2.015c-4.654-2.562-25.672-6.302-32.578-7.536
						l-1.414-0.25c-1.616-0.297-16.332,0.726-28.541,11.643c-10.893,9.753-16.059,24.207-15.359,42.964
						c0.746,20.029,12.943,32.133,32.629,32.367l4.935,0.023c7.364,0,14.981,0,21.686,1.835c2.132,0.586,3.381,2.779,2.803,4.912
						C259.181,283.089,257.572,284.252,255.814,284.252z"/>
				</g>
				<g>
					<path d="M119.478,370.242c-1.44,0-2.097-0.766-2.678-1.445c-1.434-1.679-1.234-4.209,0.444-5.638
						c0.562-0.483,1.219-0.78,1.898-0.897c2.748-1.516,13.169-9.316,14.836-10.729c5.724-4.856,9.305-9.94,10.937-15.523
						c3.443-11.69-0.988-26.565-13.158-44.222c-3.045-4.451-6.337-8.776-9.616-13.103c-2.519-3.312-5.028-6.622-7.422-9.964
						c-1.09-1.508-2.843-4.146-5.018-7.426c-7.059-10.644-21.751-32.79-28.252-36.288c-1.944-1.046-2.675-3.467-1.628-5.411
						c1.046-1.944,3.479-2.671,5.415-1.632c7.629,4.1,19.562,21.474,31.126,38.911c2.101,3.162,3.791,5.716,4.849,7.184
						c2.358,3.287,4.826,6.536,7.298,9.792c3.357,4.428,6.728,8.863,9.839,13.408c13.79,20.006,18.452,36.692,14.239,51.007
						c-2.058,7.027-6.575,13.54-13.431,19.357C127.252,367.728,122.086,370.242,119.478,370.242z"/>
				</g>
			</g>
		</g>
		<g>
			<path d="M86.919,439.975c-5.938,0-10.721-1.578-14.126-4.982c-10.896-10.894-4.049-36.193,20.35-75.198
				c1.172-1.866,3.64-2.444,5.51-1.265c1.874,1.171,2.439,3.639,1.269,5.513c-30.985,49.53-24.27,62.501-21.474,65.297
				c13.786,13.821,83.292-23.2,175.704-108.995c1.612-1.507,4.15-1.421,5.649,0.211c1.508,1.617,1.414,4.146-0.207,5.646
				C194.512,386.625,121.383,439.975,86.919,439.975z"/>
		</g>
		<g>
			<path d="M313.6,270.923c-0.984,0-1.968-0.359-2.749-1.086c-1.608-1.515-1.687-4.045-0.172-5.653
				C399.34,170.025,439.117,96.647,425.124,82.661c-2.796-2.811-15.789-9.503-65.281,21.459c-1.874,1.171-4.342,0.609-5.513-1.265
				c-1.172-1.875-0.609-4.342,1.265-5.513c38.997-24.395,64.298-31.25,75.183-20.334c23.77,23.747-42.573,116.515-114.273,192.657
				C315.724,270.501,314.662,270.923,313.6,270.923z"/>
		</g>
		<g>
			<g>
				<path d="M291.36,309.912c-5.341,0-10.354-2.078-14.118-5.85c-7.793-7.793-7.793-20.482,0-28.275
					c7.527-7.543,20.709-7.543,28.268,0c7.793,7.793,7.793,20.482,0,28.275C301.73,307.834,296.701,309.912,291.36,309.912z
					 M291.36,277.935c-3.202,0-6.216,1.241-8.465,3.507c-4.686,4.677-4.686,12.291,0,16.968c4.514,4.537,12.432,4.529,16.961,0
					c4.669-4.677,4.669-12.291,0-16.968C297.592,279.176,294.577,277.935,291.36,277.935z"/>
			</g>
			<g>
				<path d="M280.068,327.849c-1.03,0-2.045-0.391-2.826-1.172c-1.562-1.562-1.562-4.092,0-5.653l22.614-22.614
					c1.562-1.562,4.092-1.562,5.653,0s1.562,4.092,0,5.653l-22.614,22.614C282.115,327.458,281.084,327.849,280.068,327.849z"/>
			</g>
			<g>
				<path d="M257.443,305.234c-1.023,0-2.047-0.391-2.827-1.172c-1.562-1.562-1.562-4.092,0-5.653l22.626-22.622
					c1.562-1.562,4.092-1.562,5.653,0c1.562,1.562,1.562,4.092,0,5.654l-22.626,22.621
					C259.488,304.844,258.466,305.234,257.443,305.234z"/>
			</g>
			<g>
				<path d="M268.746,316.541c-1.031,0-2.046-0.391-2.826-1.171c-1.562-1.562-1.562-4.092,0-5.653l22.629-22.622
					c1.562-1.562,4.092-1.562,5.654,0c1.562,1.562,1.562,4.092,0,5.653l-22.631,22.622
					C270.792,316.15,269.762,316.541,268.746,316.541z"/>
			</g>
		</g>
	</g>
</g>
</svg>
