<?xml version="1.0" encoding="utf-8"?>
<!-- Generator: Adobe Illustrator 16.0.0, SVG Export Plug-In . SVG Version: 6.00 Build 0)  -->
<!DOCTYPE svg PUBLIC "-//W3C//DTD SVG 1.1//EN" "http://www.w3.org/Graphics/SVG/1.1/DTD/svg11.dtd">
<svg version="1.1" id="Layer_1" xmlns="http://www.w3.org/2000/svg" xmlns:xlink="http://www.w3.org/1999/xlink" x="0px" y="0px"
	 width="512px" height="512px" viewBox="0 0 512 512" enable-background="new 0 0 512 512" xml:space="preserve">
<g id="_x37_._jupiter_x2C__planet_x2C__space_x2C__star_x2C__astronomy_x2C__discovery">
	<g>
		<g>
			<path d="M196.051,495.885c-2.206,0-4.037-1.788-4.037-3.998s1.749-3.998,3.959-3.998h0.078c2.21,0,3.998,1.788,3.998,3.998
				S198.261,495.885,196.051,495.885z"/>
		</g>
		<g>
			<path d="M20.135,375.942c-2.206,0-4.037-1.788-4.037-3.998s1.75-3.998,3.959-3.998h0.078c2.21,0,3.999,1.788,3.999,3.998
				S22.345,375.942,20.135,375.942z"/>
		</g>
		<g>
			<path d="M116.089,439.912c-2.206,0-4.037-1.789-4.037-3.998c0-2.211,1.749-3.998,3.959-3.998h0.078
				c2.21,0,3.998,1.787,3.998,3.998C120.087,438.123,118.299,439.912,116.089,439.912z"/>
		</g>
		<g>
			<path d="M371.962,439.912c-2.202,0-4.029-1.789-4.029-3.998c0-2.211,1.749-3.998,3.951-3.998h0.078
				c2.218,0,3.998,1.787,3.998,3.998C375.96,438.123,374.18,439.912,371.962,439.912z"/>
		</g>
		<g>
			<path d="M499.9,311.973c-2.202,0-4.029-1.788-4.029-3.998c0-2.209,1.749-3.998,3.951-3.998h0.078
				c2.218,0,3.998,1.789,3.998,3.998C503.898,310.185,502.118,311.973,499.9,311.973z"/>
		</g>
		<g>
			<path d="M451.924,224.016c-2.202,0-4.029-1.788-4.029-3.998s1.749-3.998,3.951-3.998h0.078c2.218,0,3.998,1.788,3.998,3.998
				S454.142,224.016,451.924,224.016z"/>
		</g>
		<g>
			<path d="M507.896,144.054c-2.201,0-4.029-1.788-4.029-3.998s1.75-3.998,3.951-3.998h0.078c2.218,0,3.998,1.788,3.998,3.998
				S510.114,144.054,507.896,144.054z"/>
		</g>
		<g>
			<path d="M52.12,295.98c-2.206,0-4.038-1.788-4.038-3.998c0-2.209,1.75-3.998,3.959-3.998h0.078c2.209,0,3.998,1.789,3.998,3.998
				C56.118,294.192,54.33,295.98,52.12,295.98z"/>
		</g>
		<g>
			<path d="M260.02,48.1c-2.205,0-4.037-1.788-4.037-3.998c0-2.209,1.75-3.998,3.959-3.998h0.078c2.21,0,3.994,1.789,3.994,3.998
				C264.014,46.312,262.229,48.1,260.02,48.1z"/>
		</g>
		<g>
			<path d="M4.143,184.035c-2.206,0-4.037-1.789-4.037-3.998c0-2.21,1.749-3.998,3.959-3.998h0.078c2.21,0,3.998,1.788,3.998,3.998
				C8.141,182.246,6.353,184.035,4.143,184.035z"/>
		</g>
		<g>
			<path d="M28.131,112.069c-2.206,0-4.037-1.788-4.037-3.998s1.749-3.998,3.959-3.998h0.078c2.209,0,3.998,1.788,3.998,3.998
				S30.341,112.069,28.131,112.069z"/>
		</g>
		<g>
			<g>
				<path d="M35.905,479.893c-2.209,0-3.998-1.788-3.998-3.998V443.91c0-2.21,1.789-3.998,3.998-3.998
					c2.21,0,3.999,1.788,3.999,3.998v31.984C39.903,478.104,38.115,479.893,35.905,479.893z"/>
			</g>
			<g>
				<path d="M43.901,463.9H27.909c-2.209,0-3.998-1.789-3.998-3.998c0-2.21,1.789-3.998,3.998-3.998h15.993
					c2.209,0,3.998,1.788,3.998,3.998C47.899,462.111,46.111,463.9,43.901,463.9z"/>
			</g>
		</g>
		<g>
			<g>
				<path d="M99.874,56.096c-2.21,0-3.998-1.789-3.998-3.998V20.113c0-2.21,1.788-3.998,3.998-3.998s3.998,1.788,3.998,3.998v31.985
					C103.872,54.308,102.084,56.096,99.874,56.096z"/>
			</g>
			<g>
				<path d="M107.87,40.104H91.878c-2.21,0-3.998-1.788-3.998-3.998s1.788-3.998,3.998-3.998h15.992c2.21,0,3.998,1.788,3.998,3.998
					S110.08,40.104,107.87,40.104z"/>
			</g>
		</g>
		<g>
			<g>
				<path d="M459.686,72.088c-7.473,0-14.501-2.913-19.787-8.199c-5.287-5.287-8.199-12.314-8.199-19.788
					c0-7.473,2.912-14.5,8.199-19.787c10.572-10.573,29.002-10.573,39.574,0c5.287,5.287,8.199,12.314,8.199,19.787
					c0,7.474-2.912,14.501-8.199,19.788C474.187,69.176,467.158,72.088,459.686,72.088z M459.686,24.111
					c-5.341,0-10.354,2.081-14.134,5.856c-3.779,3.776-5.856,8.797-5.856,14.134c0,5.338,2.077,10.358,5.856,14.134
					c7.551,7.552,20.717,7.552,28.268,0c3.779-3.775,5.856-8.796,5.856-14.134c0-5.337-2.077-10.358-5.856-14.134
					C470.04,26.192,465.027,24.111,459.686,24.111z"/>
			</g>
			<g>
				<path d="M480.34,71.386c-9.753,0.004-25.566-15.235-29.135-18.804c-4.248-4.248-25.035-25.851-16.961-33.921
					c1.562-1.562,4.092-1.562,5.654,0c1.39,1.386,1.546,3.537,0.469,5.095c0.148,2.562,4.974,11.655,16.492,23.173
					c11.518,11.518,20.614,16.344,23.176,16.492c1.562-1.07,3.701-0.918,5.092,0.468c1.562,1.562,1.562,4.092,0,5.654
					C483.83,70.835,482.198,71.386,480.34,71.386z"/>
			</g>
		</g>
		<g>
			<g>
				<path d="M467.666,407.927c-4.99,0-9.378-3.014-11.182-7.668c-2.374-6.169,0.702-13.126,6.871-15.508
					c6.083-2.374,13.182,0.812,15.508,6.855c1.156,2.999,1.078,6.263-0.218,9.184c-1.297,2.936-3.663,5.185-6.653,6.333
					C470.603,407.662,469.149,407.927,467.666,407.927z M467.682,391.935c-0.484,0-0.969,0.094-1.437,0.266
					c-2.062,0.796-3.093,3.124-2.296,5.169c0.773,2.016,3.107,3.077,5.17,2.296c0.999-0.39,1.779-1.14,2.217-2.108
					c0.438-0.983,0.453-2.068,0.078-3.061C470.805,392.935,469.345,391.935,467.682,391.935z"/>
			</g>
			<g>
				<path d="M427.701,455.904c-1.312,0-2.593-0.648-3.357-1.836c-1.203-1.85-0.664-4.333,1.194-5.521
					c31.196-20.084,35.912-45.368,35.959-45.626c0.375-2.171,2.444-3.576,4.615-3.265c2.171,0.367,3.631,2.421,3.271,4.592
					c-0.195,1.171-5.169,28.916-39.52,51.015C429.2,455.701,428.451,455.904,427.701,455.904z"/>
			</g>
		</g>
	</g>
	<g>
		<g>
			<path d="M255.784,407.927c-83.772,0-151.927-68.154-151.927-151.927s68.155-151.927,151.927-151.927
				c83.772,0,151.927,68.154,151.927,151.927S339.556,407.927,255.784,407.927z M255.784,112.069
				c-79.364,0-143.931,64.566-143.931,143.931c0,79.368,64.567,143.931,143.931,143.931c79.368,0,143.931-64.562,143.931-143.931
				C399.715,176.636,335.151,112.069,255.784,112.069z"/>
		</g>
		<g>
			<path d="M123.843,248.004c-2.104,0-3.865-1.644-3.986-3.768c-0.129-2.206,1.558-4.096,3.76-4.221
				c66.578-3.818,88.758-20.568,110.205-36.768c23.974-18.104,46.622-35.206,121.914-35.206c2.21,0,3.998,1.789,3.998,3.998
				c0,2.21-1.788,3.999-3.998,3.999c-72.621,0-94.22,16.316-117.092,33.589c-22.403,16.917-45.568,34.413-114.566,38.368
				C123.999,248,123.921,248.004,123.843,248.004z"/>
		</g>
		<g>
			<path d="M147.835,192.031c-1.042,0-2.085-0.406-2.87-1.214c-1.538-1.581-1.499-4.115,0.086-5.653
				c18.632-18.093,38.724-22.927,61.986-28.521c21.248-5.111,45.33-10.905,74.718-28.037c1.905-1.102,4.357-0.461,5.466,1.44
				c1.108,1.909,0.469,4.357-1.437,5.47c-30.404,17.722-55.095,23.661-76.877,28.9c-23.032,5.541-41.222,9.917-58.289,26.487
				C149.842,191.656,148.839,192.031,147.835,192.031z"/>
		</g>
		<g>
			<path d="M145.333,304.68c-4.576,0-9.203-0.234-13.908-0.727c-2.198-0.227-3.791-2.193-3.557-4.396
				c0.23-2.186,2.194-3.811,4.393-3.553c33.578,3.506,63.841-7.332,98.886-19.92c42.425-15.23,90.511-32.508,156.838-28.072
				c2.202,0.148,3.874,2.054,3.726,4.256c-0.148,2.206-2.094,3.869-4.256,3.725c-64.703-4.322-111.923,12.65-153.606,27.619
				C202.661,294.81,175.158,304.68,145.333,304.68z"/>
		</g>
		<g>
			<path d="M267.777,335.962c-2.209,0-3.998-1.788-3.998-3.998s1.789-3.999,3.998-3.999c7.255,0,17.227-4.396,23.989-7.996
				c-6.263-3.342-16.328-7.996-23.989-7.996c-2.209,0-3.998-1.788-3.998-3.998c0-2.209,1.789-3.998,3.998-3.998
				c14.26,0,33.336,12.111,34.141,12.627c1.147,0.734,1.843,2.007,1.843,3.365c0,1.359-0.695,2.632-1.843,3.366
				C301.113,323.851,282.037,335.962,267.777,335.962z"/>
		</g>
		<g>
			<path d="M267.777,335.962c-14.258,0-33.335-12.111-34.14-12.627c-1.147-0.734-1.843-2.007-1.843-3.366
				c0-1.358,0.695-2.631,1.843-3.365c0.805-0.516,19.881-12.627,34.14-12.627c2.211,0,3.998,1.789,3.998,3.998
				c0,2.21-1.787,3.998-3.998,3.998c-7.254,0-17.226,4.396-23.988,7.996c6.263,3.343,16.328,7.996,23.988,7.996
				c2.211,0,3.998,1.789,3.998,3.999S269.988,335.962,267.777,335.962z"/>
		</g>
		<g>
			<path d="M253.96,369.695c-9.171,0-18.097-0.539-26.959-1.078c-15.86-0.968-30.829-1.873-46.614,0.383
				c-2.206,0.289-4.213-1.21-4.525-3.396c-0.312-2.187,1.206-4.209,3.393-4.521c16.59-2.365,32.672-1.397,48.23-0.445
				c38.139,2.297,77.596,4.717,133.226-39.793c1.726-1.382,4.24-1.093,5.622,0.625c1.382,1.726,1.102,4.24-0.625,5.622
				C320.643,363.144,285.832,369.695,253.96,369.695z"/>
		</g>
	</g>
</g>
</svg>
