<?xml version="1.0" encoding="utf-8"?>
<!-- Generator: Adobe Illustrator 16.0.0, SVG Export Plug-In . SVG Version: 6.00 Build 0)  -->
<!DOCTYPE svg PUBLIC "-//W3C//DTD SVG 1.1//EN" "http://www.w3.org/Graphics/SVG/1.1/DTD/svg11.dtd">
<svg version="1.1" id="Layer_1" xmlns="http://www.w3.org/2000/svg" xmlns:xlink="http://www.w3.org/1999/xlink" x="0px" y="0px"
	 width="413.372px" height="174.318px" viewBox="0 0 413.372 174.318" enable-background="new 0 0 413.372 174.318"
	 xml:space="preserve">
<g opacity="0.8">
	<path fill="#FFFFFF" d="M88.677,174.25c0,0-1.576,0.023-4.532,0.068c-2.956-0.104-7.332-0.184-12.818-1.122
		c-5.48-0.915-12.089-2.611-19.259-5.702c-7.169-3.06-14.866-7.6-22.193-13.929c-7.285-6.347-14.208-14.485-19.481-24.337
		c-5.3-9.808-9.018-21.276-10.047-33.483C-0.717,83.572,0.635,70.69,4.996,58.527c4.319-12.158,11.491-23.491,20.708-32.815
		C35.022,16.487,46.36,9.32,58.517,5c12.14-4.375,25.09-5.714,37.186-4.656c12.276,1.037,23.701,4.743,33.521,10.052
		c4.909,2.651,9.434,5.677,13.491,8.982c4.055,3.312,7.667,6.858,10.849,10.5c6.327,7.329,10.87,15.025,13.928,22.197
		c3.089,7.171,4.786,13.781,5.698,19.262c0.94,5.488,1.018,9.861,1.12,12.814c-0.045,2.958-0.069,4.537-0.069,4.537
		s-0.108-1.571-0.311-4.519c-0.328-2.931-0.837-7.229-2.104-12.556c-1.268-5.32-3.408-11.634-6.763-18.41
		c-3.368-6.764-8.164-13.889-14.477-20.627c-6.378-6.667-14.374-12.849-23.769-17.546c-9.374-4.688-20.235-7.748-31.53-8.538
		C89.552,6.101,83.763,6.289,77.966,7.1c-5.787,0.821-11.554,2.242-17.157,4.258c-11.202,4.06-21.61,10.755-30.159,19.3
		c-8.551,8.544-15.242,18.957-19.303,30.158C9.334,66.42,7.9,72.183,7.083,77.973l-0.299,2.17l-0.19,2.135l-0.186,2.131
		l-0.079,2.252L6.258,88.82l0.034,2.156c0.016,0.718,0.011,1.435,0.042,2.147l0.142,2.135c0.797,11.364,3.844,22.182,8.54,31.568
		c4.699,9.396,10.878,17.396,17.548,23.771c6.74,6.312,13.864,11.109,20.63,14.477c6.777,3.354,13.091,5.495,18.412,6.761
		c5.329,1.269,9.623,1.774,12.551,2.104C87.104,174.142,88.677,174.25,88.677,174.25z"/>
</g>
<g>
	<g opacity="0.8">
		<path fill="#FFFFFF" d="M55.225,139.319c0-0.673,0.588-1.262,1.261-1.262c0.757,0,1.345,0.589,1.345,1.262
			c0,1.766,1.345,3.191,3.11,3.191c1.682,0,3.11-1.428,3.11-3.191V83.25c0-0.672,0.588-1.261,1.261-1.261
			c0.756,0,1.261,0.588,1.261,1.261v56.069c0,3.191-2.522,5.716-5.632,5.716S55.225,142.51,55.225,139.319z"/>
	</g>
	<g opacity="0.8">
		<path fill="#FFFFFF" d="M75.397,139.403v-25.891c0-0.675,0.588-1.264,1.261-1.264c0.673,0,1.261,0.589,1.261,1.264v25.891
			c0,1.682,1.429,3.107,3.11,3.107c1.766,0,3.11-1.428,3.11-3.107v-25.891c0-0.675,0.588-1.264,1.345-1.264
			c0.672,0,1.261,0.589,1.261,1.264v25.891c0,3.107-2.522,5.632-5.716,5.632C77.919,145.035,75.397,142.51,75.397,139.403z"/>
	</g>
	<g opacity="0.8">
		<path fill="#FFFFFF" d="M95.149,158.905v-40.938c0-3.192,2.521-5.717,5.632-5.717c3.194,0,5.716,2.522,5.716,5.717v21.438
			c0,3.107-2.522,5.632-5.716,5.632c-1.093,0-2.186-0.337-3.11-0.925v14.795c0,0.672-0.504,1.261-1.261,1.261
			C95.737,160.166,95.149,159.577,95.149,158.905z M100.781,142.51c1.766,0,3.194-1.428,3.194-3.107v-21.438
			c0-1.766-1.429-3.108-3.194-3.108c-1.681,0-3.11,1.345-3.11,3.108v21.438C97.67,141.084,99.1,142.51,100.781,142.51z"/>
	</g>
	<g opacity="0.8">
		<path fill="#FFFFFF" d="M117.422,113.512v30.262c0,0.756-0.588,1.261-1.261,1.261c-0.673,0-1.261-0.505-1.261-1.261v-30.262
			c0-0.675,0.588-1.264,1.261-1.264C116.834,112.25,117.422,112.839,117.422,113.512z"/>
	</g>
	<g opacity="0.8">
		<path fill="#FFFFFF" d="M135.578,143.774c0,0.756-0.588,1.261-1.345,1.261c-3.11,0-5.632-2.521-5.632-5.632V124.44v-6.475v-3.108
			h-3.11c-0.756,0-1.345-0.589-1.345-1.345c0-0.675,0.588-1.264,1.345-1.264h3.11V83.334c0-0.756,0.588-1.345,1.261-1.345
			c0.673,0,1.261,0.588,1.261,1.345v28.917h3.11c0.757,0,1.261,0.589,1.261,1.264c0,0.756-0.504,1.345-1.261,1.345h-3.11v3.108
			v6.475v14.963c0,1.682,1.429,3.109,3.11,3.109C134.99,142.51,135.578,143.101,135.578,143.774z"/>
	</g>
	<g opacity="0.8">
		<path fill="#FFFFFF" d="M145.412,129.988v9.415c0,1.682,1.345,3.107,3.11,3.107c1.682,0,3.11-1.428,3.11-3.107
			c0-0.757,0.588-1.262,1.261-1.262c0.756,0,1.345,0.505,1.345,1.262c0,3.107-2.606,5.632-5.716,5.632s-5.716-2.521-5.716-5.632
			v-21.438c0-3.108,2.606-5.717,5.716-5.717s5.716,2.606,5.716,5.717v10.678c0,0.756-0.588,1.345-1.345,1.345H145.412
			L145.412,129.988z M145.412,117.967v9.414h6.22v-9.414c0-1.766-1.429-3.108-3.11-3.108
			C146.756,114.857,145.412,116.202,145.412,117.967z"/>
	</g>
	<g opacity="0.8">
		<path fill="#FFFFFF" d="M162.642,143.774v-25.809c0-3.108,2.521-5.717,5.632-5.717c3.194,0,5.716,2.606,5.716,5.717
			c0,0.674-0.588,1.263-1.26,1.263c-0.758,0-1.262-0.589-1.262-1.263c0-1.766-1.429-3.108-3.194-3.108
			c-1.681,0-3.11,1.345-3.11,3.108v25.809c0,0.756-0.504,1.261-1.261,1.261C163.23,145.035,162.642,144.53,162.642,143.774z"/>
	</g>
	<g opacity="0.8">
		<path fill="#FFFFFF" d="M181.132,139.403v-6.305c0-3.194,2.606-5.719,5.717-5.719c1.177,0,2.186,0.337,3.109,0.928v-10.342
			c0-1.766-1.428-3.108-3.109-3.108c-1.766,0-3.11,1.345-3.11,3.108c0,0.674-0.589,1.263-1.261,1.263
			c-0.757,0-1.346-0.589-1.346-1.263c0-3.108,2.606-5.717,5.717-5.717c3.109,0,5.632,2.606,5.632,5.717v21.438
			c0,3.108-2.522,5.632-5.632,5.632C183.739,145.035,181.132,142.51,181.132,139.403z M183.739,133.098v6.305
			c0,1.682,1.345,3.107,3.11,3.107c1.682,0,3.109-1.428,3.109-3.107v-6.305c0-1.768-1.428-3.11-3.109-3.11
			C185.083,129.988,183.739,131.333,183.739,133.098z"/>
	</g>
	<g opacity="0.8">
		<path fill="#FFFFFF" d="M209.879,143.774v-25.809c0-1.766-1.428-3.108-3.109-3.108c-1.765,0-3.11,1.345-3.11,3.108v25.809
			c0,0.756-0.588,1.261-1.261,1.261c-0.757,0-1.345-0.505-1.345-1.261v-25.809c0-3.108,2.605-5.717,5.716-5.717
			c3.111,0,5.716,2.606,5.716,5.717v25.809c0,0.756-0.588,1.261-1.344,1.261C210.467,145.035,209.879,144.53,209.879,143.774z"/>
	</g>
	<g opacity="0.8">
		<path fill="#FFFFFF" d="M220.89,139.403v-21.438c0-3.108,2.521-5.717,5.716-5.717c1.094,0,2.186,0.337,3.109,0.926V83.334
			c0-0.756,0.589-1.345,1.263-1.345c0.672,0,1.26,0.588,1.26,1.345v56.069c0,3.107-2.521,5.632-5.632,5.632
			C223.413,145.035,220.89,142.51,220.89,139.403z M223.413,117.967v21.438c0,1.682,1.43,3.108,3.193,3.108
			c1.682,0,3.109-1.429,3.109-3.108v-21.438c0-1.766-1.428-3.108-3.109-3.108C224.84,114.857,223.413,116.202,223.413,117.967z"/>
	</g>
	<g opacity="0.8">
		<path fill="#FFFFFF" d="M250.562,143.774c0,0.756-0.588,1.261-1.345,1.261c-3.11,0-5.633-2.521-5.633-5.632V124.44v-6.475v-3.108
			h-3.109c-0.758,0-1.346-0.589-1.346-1.345c0-0.675,0.588-1.264,1.346-1.264h3.109V83.334c0-0.756,0.588-1.345,1.262-1.345
			c0.673,0,1.261,0.588,1.261,1.345v28.917h3.11c0.757,0,1.261,0.589,1.261,1.264c0,0.756-0.504,1.345-1.261,1.345h-3.11v3.108
			v6.475v14.963c0,1.682,1.431,3.109,3.11,3.109C249.974,142.51,250.562,143.101,250.562,143.774z"/>
	</g>
	<g opacity="0.8">
		<path fill="#FFFFFF" d="M269.138,117.967v25.809c0,0.756-0.589,1.261-1.261,1.261c-0.758,0-1.262-0.505-1.262-1.261v-25.809
			c0-1.766-1.431-3.108-3.195-3.108c-1.68,0-3.108,1.345-3.108,3.108v3.951v21.855c0,0.756-0.504,1.261-1.263,1.261
			c-0.672,0-1.26-0.505-1.26-1.261v-21.855v-3.951V83.334c0-0.756,0.588-1.345,1.26-1.345c0.759,0,1.263,0.588,1.263,1.345v29.842
			c0.924-0.589,2.019-0.926,3.108-0.926C266.618,112.25,269.138,114.857,269.138,117.967z"/>
	</g>
	<g opacity="0.8">
		<path fill="#FFFFFF" d="M280.317,129.988v9.415c0,1.682,1.346,3.107,3.109,3.107c1.683,0,3.111-1.428,3.111-3.107
			c0-0.757,0.588-1.262,1.26-1.262c0.757,0,1.346,0.505,1.346,1.262c0,3.107-2.605,5.632-5.717,5.632
			c-3.11,0-5.717-2.521-5.717-5.632v-21.438c0-3.108,2.605-5.717,5.717-5.717s5.717,2.606,5.717,5.717v10.678
			c0,0.756-0.589,1.345-1.346,1.345H280.317L280.317,129.988z M280.317,117.967v9.414h6.221v-9.414c0-1.766-1.429-3.108-3.108-3.108
			C281.663,114.857,280.317,116.202,280.317,117.967z"/>
	</g>
	<g opacity="0.8">
		<path fill="#FFFFFF" d="M297.547,139.319V87.621c0-3.11,2.604-5.632,5.716-5.632c3.11,0,5.632,2.521,5.632,5.632
			c0,0.757-0.504,1.345-1.262,1.345c-0.672,0-1.26-0.588-1.26-1.345c0-1.681-1.431-3.11-3.11-3.11c-1.765,0-3.11,1.431-3.11,3.11
			v51.698c0,1.766,1.346,3.191,3.11,3.191c1.682,0,3.11-1.428,3.11-3.191v-16.311h-3.11c-0.673,0-1.261-0.588-1.261-1.26
			c0-0.758,0.588-1.262,1.261-1.262h4.37c0.758,0,1.262,0.504,1.262,1.262v17.568c0,3.191-2.521,5.716-5.632,5.716
			C300.152,145.034,297.547,142.51,297.547,139.319z"/>
	</g>
	<g opacity="0.8">
		<path fill="#FFFFFF" d="M319.821,102.668v4.371c0,0.672-0.588,1.261-1.261,1.261s-1.261-0.589-1.261-1.261v-4.371
			c0-0.673,0.588-1.262,1.261-1.262S319.821,101.996,319.821,102.668z M319.821,113.512v30.262c0,0.756-0.588,1.261-1.261,1.261
			s-1.261-0.505-1.261-1.261v-30.262c0-0.675,0.588-1.264,1.261-1.264S319.821,112.839,319.821,113.512z"/>
	</g>
	<g opacity="0.8">
		<path fill="#FFFFFF" d="M328.225,143.774v-25.809c0-3.108,2.521-5.717,5.632-5.717c3.194,0,5.716,2.606,5.716,5.717
			c0,0.674-0.588,1.263-1.261,1.263c-0.756,0-1.261-0.589-1.261-1.263c0-1.766-1.43-3.108-3.194-3.108
			c-1.681,0-3.11,1.345-3.11,3.108v25.809c0,0.756-0.504,1.261-1.261,1.261C328.813,145.035,328.225,144.53,328.225,143.774z"/>
	</g>
	<g opacity="0.8">
		<path fill="#FFFFFF" d="M346.715,139.403v-6.305c0-3.194,2.604-5.719,5.717-5.719c1.177,0,2.186,0.337,3.109,0.928v-10.342
			c0-1.766-1.43-3.108-3.109-3.108c-1.766,0-3.11,1.345-3.11,3.108c0,0.674-0.588,1.263-1.261,1.263
			c-0.757,0-1.346-0.589-1.346-1.263c0-3.108,2.604-5.717,5.717-5.717c3.111,0,5.632,2.606,5.632,5.717v21.438
			c0,3.108-2.521,5.632-5.632,5.632S346.715,142.51,346.715,139.403z M349.322,133.098v6.305c0,1.682,1.347,3.107,3.11,3.107
			c1.682,0,3.109-1.428,3.109-3.107v-6.305c0-1.768-1.43-3.11-3.109-3.11C350.667,129.988,349.322,131.333,349.322,133.098z"/>
	</g>
	<g opacity="0.8">
		<path fill="#FFFFFF" d="M377.985,113.596c0,0.672-0.588,1.261-1.345,1.261h-7.481v24.546c0,1.682,1.43,3.107,3.11,3.107
			c0.757,0,1.261,0.591,1.261,1.264c0,0.756-0.504,1.261-1.261,1.261c-3.11,0-5.632-2.521-5.632-5.632V87.705
			c0-3.11,2.521-5.716,5.632-5.716s5.716,2.604,5.716,5.716c0,0.673-0.588,1.261-1.345,1.261c-0.673,0-1.261-0.588-1.261-1.261
			c0-1.681-1.346-3.11-3.11-3.11c-1.681,0-3.11,1.431-3.11,3.11v24.545h7.481C377.397,112.25,377.985,112.839,377.985,113.596z"/>
	</g>
	<g opacity="0.8">
		<path fill="#FFFFFF" d="M395.635,113.596c0,0.672-0.588,1.261-1.346,1.261h-7.48v24.546c0,1.682,1.43,3.107,3.109,3.107
			c0.758,0,1.262,0.591,1.262,1.264c0,0.756-0.504,1.261-1.262,1.261c-3.109,0-5.631-2.521-5.631-5.632V87.705
			c0-3.11,2.521-5.716,5.631-5.716s5.717,2.604,5.717,5.716c0,0.673-0.588,1.261-1.346,1.261c-0.672,0-1.262-0.588-1.262-1.261
			c0-1.681-1.345-3.11-3.109-3.11c-1.682,0-3.109,1.431-3.109,3.11v24.545h7.48C395.047,112.25,395.635,112.839,395.635,113.596z"/>
	</g>
	<g opacity="0.8">
		<path fill="#FFFFFF" d="M404.543,129.988v9.415c0,1.682,1.347,3.107,3.109,3.107c1.684,0,3.11-1.428,3.11-3.107
			c0-0.757,0.589-1.262,1.261-1.262c0.757,0,1.348,0.505,1.348,1.262c0,3.107-2.606,5.632-5.719,5.632
			c-3.109,0-5.716-2.521-5.716-5.632v-21.438c0-3.108,2.604-5.717,5.716-5.717s5.719,2.606,5.719,5.717v10.678
			c0,0.756-0.591,1.345-1.348,1.345H404.543L404.543,129.988z M404.543,117.967v9.414h6.222v-9.414c0-1.766-1.429-3.108-3.11-3.108
			C405.89,114.857,404.543,116.202,404.543,117.967z"/>
	</g>
</g>
<text transform="matrix(1 0 0 1 113.8027 106.7166)" opacity="0.8" fill="#FFFFFF" enable-background="new    " font-family="'HoboStd'" font-size="18.0486" letter-spacing="16">....</text>
</svg>
