<?xml version="1.0" encoding="utf-8"?>
<!-- Generator: Adobe Illustrator 16.0.0, SVG Export Plug-In . SVG Version: 6.00 Build 0)  -->
<!DOCTYPE svg PUBLIC "-//W3C//DTD SVG 1.1//EN" "http://www.w3.org/Graphics/SVG/1.1/DTD/svg11.dtd">
<svg version="1.1" id="Layer_1" xmlns="http://www.w3.org/2000/svg" xmlns:xlink="http://www.w3.org/1999/xlink" x="0px" y="0px"
	 width="512px" height="512px" viewBox="0 0 512 512" enable-background="new 0 0 512 512" xml:space="preserve">
<g id="_x31_5._planet_x2C__flag_x2C__space_x2C__star_x2C__astronomy_x2C__discovery">
	<g>
		<path d="M116.067,427.918c-11.026,0-19.99-8.965-19.99-19.991c0-11.025,8.964-19.99,19.99-19.99c11.026,0,19.99,8.965,19.99,19.99
			C136.058,418.953,127.094,427.918,116.067,427.918z M116.067,395.933c-6.614,0-11.994,5.38-11.994,11.994
			s5.38,11.994,11.994,11.994c6.614,0,11.994-5.38,11.994-11.994S122.682,395.933,116.067,395.933z"/>
	</g>
	<g>
		<path d="M101.247,417.938c-0.507,0-1.015-0.094-1.515-0.297c-2.038-0.835-3.021-3.17-2.187-5.216
			c3.093-7.566,10.362-12.455,18.522-12.455c8.043,0,15.274,4.787,18.421,12.205c0.867,2.03-0.086,4.381-2.116,5.239
			c-2.007,0.867-4.381-0.085-5.239-2.115c-1.89-4.451-6.239-7.333-11.065-7.333c-4.896,0-9.261,2.937-11.119,7.489
			C104.315,417.001,102.824,417.938,101.247,417.938z"/>
	</g>
	<g>
		<path d="M385.938,435.914c-14.328,0-25.987-11.659-25.987-25.988s11.659-25.987,25.987-25.987
			c14.329,0,25.988,11.658,25.988,25.987S400.267,435.914,385.938,435.914z M385.938,391.935c-9.917,0-17.991,8.074-17.991,17.991
			c0,9.918,8.074,17.992,17.991,17.992c9.918,0,17.992-8.074,17.992-17.992C403.93,400.009,395.855,391.935,385.938,391.935z"/>
	</g>
	<g>
		<path d="M364.776,419.921c-0.359,0-0.727-0.046-1.086-0.147c-2.124-0.602-3.365-2.812-2.764-4.936
			c3.146-11.136,13.431-18.905,25.011-18.905c11.565,0,21.85,7.762,25.004,18.874c0.609,2.124-0.625,4.334-2.748,4.936
			c-2.156,0.624-4.334-0.633-4.936-2.749c-2.194-7.692-9.316-13.064-17.32-13.064c-8.02,0-15.141,5.38-17.312,13.08
			C368.126,418.773,366.525,419.921,364.776,419.921z"/>
	</g>
	<g>
		<path d="M252.002,387.937c-24.246,0-43.979-19.732-43.979-43.979s19.732-43.979,43.979-43.979
			c24.262,0,43.994,19.733,43.994,43.979S276.264,387.937,252.002,387.937z M252.002,307.975c-19.842,0-35.982,16.141-35.982,35.983
			c0,19.842,16.141,35.982,35.982,35.982c19.85,0,35.998-16.141,35.998-35.982C288,324.115,271.852,307.975,252.002,307.975z"/>
	</g>
	<g>
		<path d="M212.826,355.952c-0.265,0-0.539-0.023-0.804-0.078c-2.163-0.445-3.561-2.554-3.124-4.717
			c4.154-20.389,22.278-35.187,43.104-35.187c20.811,0,38.935,14.767,43.104,35.116c0.438,2.163-0.952,4.279-3.116,4.725
			c-2.131,0.422-4.278-0.953-4.724-3.116c-3.405-16.647-18.241-28.729-35.265-28.729c-17.038,0-31.867,12.104-35.264,28.783
			C216.348,354.648,214.684,355.952,212.826,355.952z"/>
	</g>
	<g>
		<path d="M252.002,212.021c-2.21,0-3.998-1.789-3.998-3.998V40.104c0-2.209,1.788-3.998,3.998-3.998S256,37.894,256,40.104v167.92
			C256,210.233,254.212,212.021,252.002,212.021z"/>
	</g>
	<g>
		<path d="M339.96,60.094h-79.962c-2.209,0-3.998-1.789-3.998-3.998c0-2.21,1.789-3.998,3.998-3.998h79.962
			c2.21,0,3.998,1.788,3.998,3.998C343.958,58.306,342.17,60.094,339.96,60.094z"/>
	</g>
	<g>
		<path d="M339.96,92.087h-79.962c-2.209,0-3.998-1.789-3.998-3.998c0-2.21,1.789-3.998,3.998-3.998h79.962
			c2.21,0,3.998,1.788,3.998,3.998C343.958,90.298,342.17,92.087,339.96,92.087z"/>
	</g>
	<g>
		<path d="M339.96,92.087c-2.21,0-3.998-1.789-3.998-3.998V56.096c0-2.21,1.788-3.998,3.998-3.998s3.998,1.788,3.998,3.998v31.993
			C343.958,90.298,342.17,92.087,339.96,92.087z"/>
	</g>
	<g>
		<path d="M427.918,84.083h-79.962c-2.21,0-3.998-1.789-3.998-3.999c0-2.209,1.788-3.998,3.998-3.998h79.962
			c2.209,0,3.998,1.789,3.998,3.998C431.916,82.294,430.127,84.083,427.918,84.083z"/>
	</g>
	<g>
		<path d="M427.918,116.075H307.976c-2.21,0-3.998-1.788-3.998-3.998s1.788-3.998,3.998-3.998h119.942
			c2.209,0,3.998,1.788,3.998,3.998S430.127,116.075,427.918,116.075z"/>
	</g>
	<g>
		<path d="M427.918,116.075c-1.461,0-2.874-0.809-3.576-2.21l-7.997-15.992c-0.983-1.976-0.187-4.377,1.788-5.365
			c1.977-0.98,4.373-0.191,5.365,1.788l7.996,15.993c0.984,1.976,0.188,4.376-1.788,5.364
			C429.128,115.938,428.519,116.075,427.918,116.075z"/>
	</g>
	<g>
		<path d="M419.922,100.083c-0.602,0-1.211-0.137-1.789-0.422c-1.975-0.988-2.771-3.389-1.788-5.365l7.997-16
			c0.999-1.976,3.389-2.756,5.364-1.789c1.976,0.988,2.772,3.39,1.788,5.365l-7.996,16
			C422.795,99.274,421.382,100.083,419.922,100.083z"/>
	</g>
	<g>
		<path d="M307.976,116.067c-1.289,0-2.554-0.625-3.327-1.78c-1.226-1.839-0.726-4.318,1.109-5.544l23.988-15.992
			c1.819-1.222,4.303-0.734,5.544,1.109c1.227,1.839,0.727,4.318-1.108,5.544l-23.988,15.992
			C309.514,115.849,308.74,116.067,307.976,116.067z"/>
	</g>
	<g>
		<path d="M507.879,471.896c-2.209,0-3.998-1.788-3.998-3.998c0-136.685-111.196-247.881-247.881-247.881
			c-136.684,0-247.881,111.196-247.881,247.881c0,2.21-1.788,3.998-3.998,3.998s-3.998-1.788-3.998-3.998
			C0.123,326.81,114.912,212.021,256,212.021c141.089,0,255.877,114.788,255.877,255.877
			C511.877,470.108,510.089,471.896,507.879,471.896z"/>
	</g>
	<g>
		<path d="M124.579,275.99c-1.281,0-2.546-0.617-3.319-1.765c-1.234-1.835-0.742-4.318,1.085-5.552
			c39.583-26.601,85.795-40.66,133.654-40.66c47.868,0,94.08,14.056,133.639,40.645c1.828,1.233,2.319,3.717,1.086,5.552
			c-1.234,1.843-3.725,2.319-5.552,1.085C346.941,249.593,302.275,236.01,256,236.01c-46.267,0-90.94,13.591-129.188,39.301
			C126.125,275.771,125.352,275.99,124.579,275.99z"/>
	</g>
	<g>
		<path d="M4.121,475.895c-2.21,0-3.998-1.788-3.998-3.998v-3.998c0-2.21,1.788-3.998,3.998-3.998s3.998,1.788,3.998,3.998v3.998
			C8.119,474.106,6.331,475.895,4.121,475.895z"/>
	</g>
	<g>
		<path d="M507.879,475.895c-2.209,0-3.998-1.788-3.998-3.998v-3.998c0-2.21,1.789-3.998,3.998-3.998
			c2.21,0,3.998,1.788,3.998,3.998v3.998C511.877,474.106,510.089,475.895,507.879,475.895z"/>
	</g>
	<g>
		<path d="M507.879,475.895H4.121c-2.21,0-3.998-1.788-3.998-3.998s1.788-3.998,3.998-3.998h503.758c2.21,0,3.998,1.788,3.998,3.998
			S510.089,475.895,507.879,475.895z"/>
	</g>
</g>
</svg>
