<?xml version="1.0" encoding="utf-8"?>
<!-- Generator: Adobe Illustrator 16.0.0, SVG Export Plug-In . SVG Version: 6.00 Build 0)  -->
<!DOCTYPE svg PUBLIC "-//W3C//DTD SVG 1.1//EN" "http://www.w3.org/Graphics/SVG/1.1/DTD/svg11.dtd">
<svg version="1.1" id="Layer_1" xmlns="http://www.w3.org/2000/svg" xmlns:xlink="http://www.w3.org/1999/xlink" x="0px" y="0px"
	 width="512px" height="512px" viewBox="0 0 512 512" enable-background="new 0 0 512 512" xml:space="preserve">
<g id="_x31_7._solar_x2C__system_x2C__space_x2C__star_x2C__astronomy_x2C__discovery">
	<g>
		<path d="M255.925,511.651c-68.346,0-132.604-26.62-180.933-74.948c-90.491-90.487-100.053-235.149-22.247-336.506
			c1.34-1.742,3.858-2.069,5.607-0.734c1.75,1.343,2.081,3.85,0.734,5.606c-75.37,98.18-66.101,238.32,21.56,325.981
			c46.821,46.821,109.069,72.605,175.279,72.605c66.215,0,128.458-25.784,175.279-72.605
			c46.813-46.813,72.605-109.064,72.605-175.272c0-66.21-25.792-128.462-72.605-175.275
			C345.378-5.323,207.023-15.951,109.363,55.827c-1.781,1.304-4.283,0.921-5.587-0.859c-1.308-1.78-0.925-4.279,0.855-5.591
			c100.803-74.066,243.637-63.134,332.227,25.472c48.329,48.329,74.948,112.579,74.948,180.929
			c0,68.346-26.619,132.597-74.948,180.925C388.529,485.031,324.279,511.651,255.925,511.651z"/>
	</g>
	<g>
		<path d="M255.925,463.675c-114.636,0-207.899-93.26-207.899-207.897c0-114.64,93.264-207.9,207.899-207.9
			c114.637,0,207.904,93.26,207.904,207.9c0,42.796-12.916,83.91-37.35,118.885c-1.265,1.812-3.764,2.248-5.56,0.991
			c-1.812-1.265-2.257-3.756-0.991-5.567c23.488-33.625,35.904-73.152,35.904-114.309c0-110.228-89.676-199.904-199.908-199.904
			c-110.228,0-199.903,89.676-199.903,199.904c0,110.225,89.675,199.901,199.903,199.901c41.141,0,80.668-12.416,114.309-35.896
			c1.804-1.258,4.311-0.82,5.567,0.991c1.258,1.812,0.82,4.303-0.991,5.567C339.818,450.767,298.713,463.675,255.925,463.675z"/>
	</g>
	<g>
		<path d="M255.925,415.698c-29.767,0-58.812-8.238-83.998-23.817c-1.878-1.155-2.456-3.623-1.297-5.497
			c1.164-1.882,3.624-2.46,5.505-1.297c23.922,14.79,51.51,22.614,79.79,22.614c83.776,0,151.932-68.154,151.932-151.923
			c0-83.772-68.155-151.927-151.932-151.927c-83.772,0-151.927,68.154-151.927,151.927c0,28.397,7.895,56.102,22.833,80.123
			c1.163,1.874,0.589,4.333-1.285,5.505c-1.866,1.156-4.342,0.586-5.509-1.288c-15.723-25.277-24.035-54.442-24.035-84.339
			c0-88.184,71.743-159.923,159.923-159.923c88.181,0,159.928,71.739,159.928,159.923
			C415.853,343.959,344.105,415.698,255.925,415.698z"/>
	</g>
	<g>
		<path d="M255.917,367.713c-29.919,0-58.03-11.643-79.161-32.773c-43.639-43.65-43.639-114.668,0-158.327
			c33.617-33.608,84.956-42.331,127.743-21.731c1.992,0.952,2.827,3.342,1.867,5.333c-0.953,1.991-3.343,2.851-5.334,1.866
			c-39.754-19.131-87.411-11.025-118.623,20.186c-40.523,40.535-40.523,106.493,0,147.02c19.62,19.623,45.724,30.431,73.507,30.431
			c27.788,0,53.893-10.808,73.523-30.431c31.212-31.22,39.317-78.904,20.162-118.659c-0.96-1.983-0.125-4.373,1.858-5.333
			c2.007-0.968,4.389-0.117,5.342,1.866c20.63,42.808,11.908,94.155-21.709,127.779
			C313.956,356.078,285.837,367.713,255.917,367.713z"/>
	</g>
	<g>
		<path d="M255.933,295.755c-10.693,0-20.744-4.146-28.295-11.666c-15.555-15.617-15.555-41-0.008-56.594
			c7.555-7.551,17.602-11.705,28.291-11.705c10.69,0,20.748,4.154,28.307,11.689c15.548,15.633,15.54,41.016,0.008,56.594
			C276.677,291.608,266.635,295.755,255.933,295.755z M255.921,223.786c-8.555,0-16.593,3.326-22.633,9.354
			c-12.439,12.486-12.439,32.801,0.004,45.295c6.032,6.005,14.079,9.323,22.641,9.323c8.57,0,16.613-3.318,22.649-9.339
			c12.424-12.463,12.424-32.786-0.008-45.288C272.53,227.112,264.479,223.786,255.921,223.786z"/>
	</g>
	<g>
		<path d="M275.942,259.776c-2.209,0-3.998-1.788-3.998-3.999c-0.008-8.824-7.191-16.008-16.012-16.008
			c-2.209,0-3.998-1.788-3.998-3.998s1.789-3.998,3.998-3.998c13.232,0,24,10.769,24.008,24.004
			C279.94,257.98,278.153,259.776,275.942,259.776L275.942,259.776z"/>
	</g>
	<g>
		<path d="M255.94,279.771h-0.004c-13.224-0.016-23.988-10.783-24.004-23.993c-0.004-2.21,1.784-4.006,3.994-4.006h0.004
			c2.206,0,3.994,1.788,3.998,3.99c0.008,8.821,7.196,15.997,16.016,16.012c2.21,0,3.998,1.797,3.994,4.006
			C259.935,277.982,258.146,279.771,255.94,279.771z"/>
	</g>
	<g>
		<g>
			<path d="M337.179,178.76c-2.201,0-4.037-1.788-4.037-3.998s1.75-3.998,3.959-3.998h0.078c2.21,0,3.998,1.788,3.998,3.998
				S339.389,178.76,337.179,178.76z"/>
		</g>
		<g>
			<path d="M331.525,195.721c-2.202,0-4.037-1.789-4.037-3.998c0-2.21,1.749-3.998,3.959-3.998h0.078
				c2.21,0,3.998,1.788,3.998,3.998C335.523,193.933,333.735,195.721,331.525,195.721z"/>
		</g>
		<g>
			<path d="M320.219,173.107c-2.202,0-4.037-1.788-4.037-3.998s1.749-3.998,3.959-3.998h0.078c2.21,0,3.998,1.788,3.998,3.998
				S322.429,173.107,320.219,173.107z"/>
		</g>
		<g>
			<path d="M331.291,208.402h-0.016c-15.422,0-27.971-12.556-27.971-27.987c0-15.43,12.557-27.986,27.986-27.986
				c15.423,0,27.979,12.557,27.987,27.986C359.278,195.846,346.722,208.402,331.291,208.402z M331.291,160.425
				c-11.025,0-19.99,8.965-19.99,19.99c0,11.026,8.957,19.991,19.975,19.991c11.034,0,20.007-8.964,20.007-19.991
				C351.274,169.398,342.31,160.425,331.291,160.425z"/>
		</g>
	</g>
	<g>
		<path d="M255.925,207.801c-2.209,0-3.998-1.788-3.998-3.998v-15.993c0-2.209,1.789-3.998,3.998-3.998
			c2.21,0,3.998,1.789,3.998,3.998v15.993C259.923,206.013,258.135,207.801,255.925,207.801z"/>
	</g>
	<g>
		<path d="M255.925,327.74c-2.209,0-3.998-1.788-3.998-3.998v-15.993c0-2.209,1.789-3.998,3.998-3.998
			c2.21,0,3.998,1.789,3.998,3.998v15.993C259.923,325.952,258.135,327.74,255.925,327.74z"/>
	</g>
	<g>
		<path d="M229.941,214.766c-1.382,0-2.725-0.718-3.467-1.999l-7.996-13.853c-1.105-1.913-0.449-4.357,1.464-5.458
			c1.905-1.125,4.354-0.453,5.462,1.46l7.997,13.853c1.105,1.913,0.449,4.357-1.464,5.458
			C231.308,214.595,230.621,214.766,229.941,214.766z"/>
	</g>
	<g>
		<path d="M289.913,318.635c-1.383,0-2.726-0.718-3.468-1.999l-7.996-13.853c-1.101-1.913-0.444-4.357,1.468-5.458
			c1.898-1.125,4.35-0.453,5.459,1.46l7.996,13.853c1.108,1.913,0.453,4.357-1.461,5.459
			C291.279,318.463,290.592,318.635,289.913,318.635z"/>
	</g>
	<g>
		<path d="M210.912,233.789c-0.679,0-1.367-0.172-1.995-0.539l-13.845-7.996c-1.913-1.101-2.569-3.545-1.464-5.458
			c1.101-1.913,3.549-2.585,5.462-1.46l13.845,7.997c1.913,1.101,2.569,3.545,1.464,5.458
			C213.637,233.07,212.294,233.789,210.912,233.789z"/>
	</g>
	<g>
		<path d="M314.783,293.757c-0.679,0-1.366-0.172-1.991-0.539l-13.845-7.996c-1.913-1.102-2.569-3.545-1.468-5.459
			c1.108-1.913,3.553-2.576,5.466-1.46l13.845,7.996c1.914,1.101,2.569,3.545,1.461,5.458
			C317.509,293.038,316.166,293.757,314.783,293.757z"/>
	</g>
	<g>
		<path d="M203.958,259.776h-15.984c-2.21,0-3.998-1.788-3.998-3.999c0-2.21,1.788-3.998,3.998-3.998h15.984
			c2.21,0,3.998,1.788,3.998,3.998C207.956,257.988,206.168,259.776,203.958,259.776z"/>
	</g>
	<g>
		<path d="M323.904,259.776H307.92c-2.21,0-3.998-1.788-3.998-3.999c0-2.21,1.788-3.998,3.998-3.998h15.984
			c2.21,0,3.998,1.788,3.998,3.998C327.902,257.988,326.114,259.776,323.904,259.776z"/>
	</g>
	<g>
		<path d="M197.082,293.749c-1.382,0-2.725-0.719-3.467-2c-1.105-1.912-0.445-4.357,1.464-5.466l13.853-7.988
			c1.909-1.101,4.353-0.445,5.462,1.468c1.104,1.914,0.445,4.357-1.464,5.467l-13.853,7.988
			C198.445,293.577,197.762,293.749,197.082,293.749z"/>
	</g>
	<g>
		<path d="M300.954,233.781c-1.382,0-2.725-0.719-3.467-1.999c-1.102-1.913-0.445-4.357,1.468-5.466l13.853-7.989
			c1.914-1.101,4.35-0.445,5.459,1.468c1.108,1.913,0.445,4.357-1.461,5.466l-13.853,7.988
			C302.321,233.609,301.634,233.781,300.954,233.781z"/>
	</g>
	<g>
		<path d="M221.953,318.619c-0.68,0-1.366-0.172-1.995-0.538c-1.913-1.102-2.569-3.546-1.464-5.459l7.996-13.837
			c1.101-1.913,3.545-2.585,5.462-1.46c1.913,1.101,2.569,3.545,1.464,5.458l-7.997,13.837
			C224.679,317.901,223.335,318.619,221.953,318.619z"/>
	</g>
	<g>
		<path d="M281.925,214.75c-0.68,0-1.367-0.171-1.992-0.539c-1.912-1.101-2.568-3.545-1.468-5.458l7.996-13.845
			c1.109-1.913,3.554-2.577,5.466-1.46c1.914,1.101,2.569,3.545,1.461,5.458l-7.996,13.845
			C284.649,214.033,283.307,214.75,281.925,214.75z"/>
	</g>
	<g>
		<g>
			<path d="M145.896,394.106c-0.004,0-0.004,0-0.004,0c-7.473,0-14.497-2.904-19.784-8.191c-5.286-5.286-8.195-12.314-8.195-19.795
				s2.909-14.509,8.195-19.787c10.565-10.573,29.006-10.573,39.579,0c5.286,5.286,8.195,12.314,8.195,19.787
				c-0.004,7.48-2.913,14.509-8.199,19.787C160.4,391.194,153.373,394.106,145.896,394.106z M145.896,346.138
				c-5.341,0-10.362,2.077-14.134,5.849c-3.776,3.771-5.853,8.792-5.853,14.134c0,5.341,2.077,10.362,5.853,14.142
				c7.551,7.551,20.716,7.543,28.268-0.008c3.776-3.771,5.857-8.793,5.857-14.134c0-5.334-2.077-10.354-5.853-14.134
				C156.258,348.215,151.237,346.138,145.896,346.138z"/>
		</g>
		<g>
			<path d="M154.212,392.615c-1.55,0-3.022-0.898-3.674-2.413c-1.276-2.951-5.134-10.097-13.392-12.729
				c-10.585-3.389-15.833-11.822-18.019-16.547c-0.93-2.006-0.055-4.381,1.948-5.31c2.003-0.921,4.384-0.047,5.306,1.952
				c1.636,3.529,5.528,9.831,13.197,12.283c11.381,3.631,16.59,13.221,18.3,17.18c0.875,2.021-0.059,4.381-2.085,5.255
				C155.278,392.514,154.739,392.615,154.212,392.615z"/>
		</g>
		<g>
			<path d="M168.936,376.763c-1.499,0-2.932-0.843-3.615-2.287c-1.651-3.475-5.548-9.676-13.104-12.08
				c-11.342-3.615-16.574-13.213-18.3-17.172c-0.882-2.022,0.047-4.373,2.069-5.255c2.026-0.891,4.381,0.047,5.264,2.069
				c1.288,2.951,5.173,10.12,13.396,12.736c10.437,3.326,15.692,11.627,17.897,16.281c0.949,1.99,0.098,4.38-1.897,5.325
				C170.091,376.639,169.51,376.763,168.936,376.763z"/>
		</g>
	</g>
	<g>
		<g>
			<path d="M400.117,427.942c-15.43,0-27.986-12.549-27.994-27.979c0-15.438,12.557-27.994,27.994-27.994
				c15.423,0,27.979,12.557,27.979,27.986C428.097,415.386,415.54,427.942,400.117,427.942z M400.117,379.965
				c-11.025,0-19.998,8.972-19.998,19.998c0.008,11.019,8.973,19.982,19.998,19.982c11.019,0,19.983-8.964,19.983-19.99
				S411.136,379.965,400.117,379.965z"/>
		</g>
		<g>
			<path d="M402.476,414.245L402.476,414.245c-0.117,0-0.562-0.023-0.68-0.031c-1.249-0.102-4.341-0.844-5.481-5.403
				c-0.335-1.358-0.452-2.726-0.562-4.092c-0.07-0.883-0.125-1.765-0.312-2.624c-0.203-0.016-0.461-0.016-0.766-0.016
				c-0.016,0-1.047,0-1.078,0c-4.919-0.078-8.487-3.592-8.683-8.535c-0.164-4.404,1.522-7.105,2.96-8.598
				c2.537-2.631,5.926-3.482,8.02-3.115c2.951,0.523,4.396,0.859,5.356,1.281l7.973,2.529c1.233,0.391,2.202,1.367,2.601,2.601
				c0.023,0.078,0.047,0.148,0.062,0.227c0.188,0.031,0.437,0.047,0.71,0.039c2.288,0,3.647,0.796,4.404,2.116
				c1.491,2.592,0.023,5.372-2.507,9.698c-0.461,0.804-0.586,1.476-0.733,2.257c-0.227,1.187-0.5,2.654-1.32,4.139
				c-0.687,1.272-1.608,2.218-2.343,2.975l-0.733,0.781C408.262,411.731,406.06,414.245,402.476,414.245z M394.675,394.083
				c1.702,0,6.88,0,8.379,5.497c0.406,1.469,0.547,2.991,0.672,4.506c0.016,0.219,0.031,0.438,0.047,0.648
				c0.188-0.203,0.39-0.406,0.593-0.617c0.453-0.469,0.883-0.913,1.062-1.233c0.211-0.391,0.335-1.062,0.476-1.781
				c0.234-1.241,0.523-2.787,1.422-4.349c0.242-0.422,0.469-0.805,0.672-1.164c-1.477-0.671-2.647-1.702-3.382-3.021l-6.052-1.921
				c-0.273-0.086-0.531-0.203-0.773-0.336c-0.491-0.148-2.248-0.422-3.068-0.562c-0.461,0.086-1.921,0.641-1.819,3.49
				c0.031,0.797,0.188,0.836,0.827,0.844l0.945,3.998V394.083z"/>
		</g>
	</g>
	<g>
		<g>
			<path d="M80.65,104.491c-7.477,0-14.508-2.913-19.795-8.199c-5.282-5.287-8.191-12.307-8.191-19.788s2.909-14.501,8.191-19.788
				c10.573-10.573,29.018-10.573,39.583,0c5.282,5.287,8.195,12.307,8.195,19.788c0.004,7.473-2.909,14.5-8.195,19.788
				C95.155,101.579,88.127,104.491,80.65,104.491z M80.65,56.514c-5.341,0-10.366,2.077-14.142,5.856
				c-3.771,3.772-5.849,8.793-5.849,14.134s2.077,10.362,5.849,14.134c7.551,7.559,20.724,7.559,28.276,0
				c3.775-3.78,5.853-8.792,5.853-14.134s-2.077-10.362-5.853-14.134C91.008,58.591,85.991,56.514,80.65,56.514z"/>
		</g>
		<g>
			<path d="M97.61,86.157c-1.022,0-2.046-0.391-2.826-1.172c-1.562-1.562-1.562-4.092,0-5.653l6.965-6.965
				c1.562-1.562,4.092-1.562,5.654,0s1.562,4.092,0,5.654l-6.965,6.965C99.656,85.766,98.634,86.157,97.61,86.157z"/>
		</g>
		<g>
			<path d="M73.896,93.52c-2.94,0-5.494-0.992-7.379-2.881c-1.886-1.882-2.885-4.428-2.889-7.372c0-4.256,2.081-8.785,5.716-12.416
				c6.142-6.146,15.173-7.449,19.788-2.827c4.755,4.755,3.514,13.447-2.827,19.788C82.672,91.443,78.151,93.52,73.896,93.52z
				 M81.751,73.139c-1.636,0-4.271,0.882-6.755,3.366c-2.487,2.491-3.373,5.123-3.373,6.762c0,0.531,0.094,1.265,0.543,1.718
				c0.453,0.445,1.19,0.539,1.729,0.539c1.636,0,4.271-0.883,6.754-3.366c3.452-3.452,3.979-7.325,2.827-8.48
				C83.028,73.233,82.29,73.139,81.751,73.139z"/>
		</g>
	</g>
</g>
</svg>
